# xmcd
#
# Track frame offsets:
#	150
#	16530
#	33405
#	52277
#	76295
#	90680
#	106545
#	123440
#	143557
#	156080
#
# Disc length: 2353 seconds
#
# Revision: 1
# Processed by: cddbd v1.4PL0 Copyright (c) Steve Scherf et al.
# Submitted via: audiograbber 1.80
#
DISCID=6f092f0a
DTITLE=The Kirk Smithhart Band - So Long
DYEAR=1900
DGENRE=
TTITLE0=So Long
TTITLE1=Second Chance
TTITLE2=I Feel Alright now
TTITLE3=These Blues Won't Leave Me Alone
TTITLE4=Slide Baby
TTITLE5=Cold To The Bone
TTITLE6=Home
TTITLE7=Someday
TTITLE8=10 Miles To Clarksdale
TTITLE9=Midnight
EXTD=
EXTT0=
EXTT1=
EXTT2=
EXTT3=
EXTT4=
EXTT5=
EXTT6=
EXTT7=
EXTT8=
EXTT9=
PLAYORDER=
